<svg width="800" height="1200" xmlns="http://www.w3.org/2000/svg" style="font-family: Arial, sans-serif; font-size: 14px;"><rect x="50" y="50" width="250" height="40" fill="#87CEEB" stroke="#333" stroke-width="2" rx="10" ry="10" /><text x="175.0" y="75.0" text-anchor="middle" fill="#333">Array &amp; String</text><line x1="175.0" y1="90" x2="175.0" y2="110" stroke="#333" stroke-width="2" /><rect x="50" y="110" width="250" height="40" fill="#FFA07A" stroke="#333" stroke-width="2" rx="10" ry="10" /><text x="175.0" y="135.0" text-anchor="middle" fill="#333">Hashing</text><line x1="175.0" y1="150" x2="175.0" y2="170" stroke="#333" stroke-width="2" /><rect x="50" y="170" width="250" height="40" fill="#87CEEB" stroke="#333" stroke-width="2" rx="10" ry="10" /><text x="175.0" y="195.0" text-anchor="middle" fill="#333">Linked List</text><line x1="175.0" y1="210" x2="175.0" y2="230" stroke="#333" stroke-width="2" /><rect x="50" y="230" width="250" height="40" fill="#FFA07A" stroke="#333" stroke-width="2" rx="10" ry="10" /><text x="175.0" y="255.0" text-anchor="middle" fill="#333">Stack and Queue</text><line x1="175.0" y1="270" x2="175.0" y2="290" stroke="#333" stroke-width="2" /><rect x="50" y="290" width="250" height="40" fill="#87CEEB" stroke="#333" stroke-width="2" rx="10" ry="10" /><text x="175.0" y="315.0" text-anchor="middle" fill="#333">Two Pointer</text><line x1="175.0" y1="330" x2="175.0" y2="350" stroke="#333" stroke-width="2" /><rect x="50" y="350" width="250" height="40" fill="#FFA07A" stroke="#333" stroke-width="2" rx="10" ry="10" /><text x="175.0" y="375.0" text-anchor="middle" fill="#333">Sliding Window</text><line x1="175.0" y1="390" x2="175.0" y2="410" stroke="#333" stroke-width="2" /><rect x="50" y="410" width="250" height="40" fill="#87CEEB" stroke="#333" stroke-width="2" rx="10" ry="10" /><text x="175.0" y="435.0" text-anchor="middle" fill="#333">Prefix Sum</text><line x1="175.0" y1="450" x2="175.0" y2="470" stroke="#333" stroke-width="2" /><rect x="50" y="470" width="250" height="40" fill="#FFA07A" stroke="#333" stroke-width="2" rx="10" ry="10" /><text x="175.0" y="495.0" text-anchor="middle" fill="#333">Binary Search</text><line x1="175.0" y1="510" x2="175.0" y2="530" stroke="#333" stroke-width="2" /><rect x="50" y="530" width="250" height="40" fill="#87CEEB" stroke="#333" stroke-width="2" rx="10" ry="10" /><text x="175.0" y="555.0" text-anchor="middle" fill="#333">Search and Sort</text><line x1="175.0" y1="570" x2="175.0" y2="590" stroke="#333" stroke-width="2" /><rect x="50" y="590" width="250" height="40" fill="#FFA07A" stroke="#333" stroke-width="2" rx="10" ry="10" /><text x="175.0" y="615.0" text-anchor="middle" fill="#333">Greedy Algorithm</text><line x1="175.0" y1="630" x2="175.0" y2="650" stroke="#333" stroke-width="2" /><rect x="50" y="650" width="250" height="40" fill="#87CEEB" stroke="#333" stroke-width="2" rx="10" ry="10" /><text x="175.0" y="675.0" text-anchor="middle" fill="#333">Recursion</text><line x1="175.0" y1="690" x2="175.0" y2="710" stroke="#333" stroke-width="2" /><rect x="50" y="710" width="250" height="40" fill="#FFA07A" stroke="#333" stroke-width="2" rx="10" ry="10" /><text x="175.0" y="735.0" text-anchor="middle" fill="#333">Dynamic Programming</text><line x1="175.0" y1="750" x2="175.0" y2="770" stroke="#333" stroke-width="2" /><rect x="50" y="770" width="250" height="40" fill="#87CEEB" stroke="#333" stroke-width="2" rx="10" ry="10" /><text x="175.0" y="795.0" text-anchor="middle" fill="#333">Tree</text><line x1="175.0" y1="810" x2="175.0" y2="830" stroke="#333" stroke-width="2" /><rect x="50" y="830" width="250" height="40" fill="#FFA07A" stroke="#333" stroke-width="2" rx="10" ry="10" /><text x="175.0" y="855.0" text-anchor="middle" fill="#333">Heap</text><line x1="175.0" y1="870" x2="175.0" y2="890" stroke="#333" stroke-width="2" /><rect x="50" y="890" width="250" height="40" fill="#87CEEB" stroke="#333" stroke-width="2" rx="10" ry="10" /><text x="175.0" y="915.0" text-anchor="middle" fill="#333">Graph</text><line x1="175.0" y1="930" x2="175.0" y2="950" stroke="#333" stroke-width="2" /><rect x="50" y="950" width="250" height="40" fill="#FFA07A" stroke="#333" stroke-width="2" rx="10" ry="10" /><text x="175.0" y="975.0" text-anchor="middle" fill="#333">Bit Manipulation</text><line x1="175.0" y1="990" x2="175.0" y2="1010" stroke="#333" stroke-width="2" /><rect x="50" y="1010" width="250" height="40" fill="#87CEEB" stroke="#333" stroke-width="2" rx="10" ry="10" /><text x="175.0" y="1035.0" text-anchor="middle" fill="#333">Backtracking and Number Theory</text></svg>